<?xml version="1.0" standalone="no"?>
<!DOCTYPE svg PUBLIC "-//W3C//DTD SVG 20010904//EN"
 "http://www.w3.org/TR/2001/REC-SVG-20010904/DTD/svg10.dtd">
<svg version="1.0" xmlns="http://www.w3.org/2000/svg"
 width="860.000000pt" height="860.000000pt" viewBox="0 0 860.000000 860.000000"
 preserveAspectRatio="xMidYMid meet">
<metadata>
Created by potrace 1.11, written by Peter Selinger 2001-2013
</metadata>
<g transform="translate(0.000000,860.000000) scale(0.100000,-0.100000)"
fill="#000000" stroke="none">
<path d="M4129 8196 c-2 -2 -49 -6 -105 -10 -55 -4 -109 -8 -120 -10 -10 -2
-49 -7 -86 -10 -37 -4 -77 -9 -90 -11 -13 -2 -45 -6 -71 -9 -27 -3 -52 -8 -56
-10 -3 -3 -27 -7 -51 -10 -131 -16 -634 -164 -735 -217 -12 -5 -27 -11 -35
-13 -8 -1 -51 -20 -95 -40 -44 -21 -84 -39 -90 -40 -5 -1 -44 -20 -85 -41 -41
-21 -78 -38 -82 -37 -5 1 -8 -2 -8 -6 0 -4 -35 -26 -77 -47 -43 -22 -84 -46
-91 -52 -7 -7 -19 -13 -27 -13 -7 0 -15 -6 -18 -14 -3 -8 -22 -20 -41 -27 -20
-7 -36 -17 -36 -21 0 -4 -7 -8 -15 -8 -8 0 -15 -4 -15 -8 0 -5 -12 -15 -27
-23 -16 -8 -30 -17 -33 -20 -12 -13 -120 -89 -126 -88 -4 0 -10 -4 -13 -9 -3
-5 -46 -41 -96 -80 -49 -40 -106 -87 -126 -107 -21 -19 -39 -35 -41 -35 -3 0
-56 -51 -120 -112 -123 -121 -245 -254 -328 -358 -29 -36 -56 -68 -62 -71 -5
-3 -9 -10 -8 -14 1 -4 -12 -22 -28 -41 -17 -19 -28 -34 -24 -34 3 0 -4 -10
-15 -22 -11 -13 -41 -55 -66 -94 -26 -40 -53 -79 -62 -87 -8 -9 -15 -19 -15
-24 0 -8 -69 -124 -80 -133 -3 -3 -14 -24 -24 -47 -11 -24 -23 -43 -28 -43 -4
0 -7 -3 -6 -7 3 -10 -94 -206 -105 -214 -5 -3 -8 -10 -8 -15 1 -15 -11 -48
-22 -63 -6 -7 -12 -18 -13 -25 -2 -9 -13 -36 -67 -166 -5 -14 -11 -29 -12 -35
-2 -5 -16 -50 -33 -100 -60 -180 -132 -456 -132 -509 0 -14 -5 -28 -10 -31 -6
-4 -8 -9 -6 -13 2 -4 0 -29 -5 -57 -16 -90 -21 -120 -24 -155 -12 -113 -14
-141 -19 -199 -17 -190 -13 -548 8 -716 3 -22 8 -65 11 -95 3 -30 13 -93 21
-140 8 -47 17 -101 20 -120 3 -19 23 -109 46 -200 22 -91 41 -169 43 -175 1
-5 4 -17 7 -25 3 -8 20 -58 38 -110 17 -52 50 -142 73 -200 23 -58 42 -107 42
-110 1 -3 15 -33 33 -67 18 -35 33 -66 34 -70 3 -15 52 -118 60 -128 7 -8 60
-99 121 -208 6 -12 17 -29 23 -37 6 -8 22 -35 35 -60 13 -25 31 -50 39 -57 8
-7 12 -13 8 -13 -4 0 -1 -8 6 -17 8 -10 58 -76 112 -148 142 -191 243 -306
426 -486 65 -64 118 -114 118 -112 0 3 6 -2 13 -9 8 -7 40 -35 72 -63 33 -27
70 -60 83 -72 12 -13 25 -23 29 -23 3 0 38 -24 77 -54 113 -85 227 -161 354
-236 64 -38 122 -74 129 -80 7 -5 15 -10 18 -10 8 0 138 -62 164 -79 13 -8 29
-16 35 -17 12 -3 157 -64 216 -91 43 -20 38 -19 78 -28 17 -4 32 -11 32 -15 0
-3 6 -7 13 -7 12 0 226 -66 282 -87 17 -6 34 -10 39 -8 4 1 14 -3 22 -9 8 -6
14 -9 14 -6 0 3 15 1 33 -4 17 -6 43 -12 57 -15 14 -2 45 -9 70 -14 25 -5 61
-12 80 -15 19 -3 42 -8 50 -10 8 -2 35 -7 60 -10 25 -3 70 -10 100 -15 30 -5
91 -12 135 -15 44 -4 107 -10 140 -13 77 -9 458 -7 554 3 41 4 97 9 125 11 63
5 105 11 226 31 52 8 109 17 125 20 17 2 77 16 135 30 58 14 112 26 121 27 8
1 28 7 45 13 31 11 230 74 248 78 13 2 59 20 106 41 20 8 42 16 50 18 8 1 50
19 93 39 43 20 80 37 83 37 2 0 31 13 63 29 33 16 62 26 65 23 4 -3 6 0 6 7 0
7 4 10 9 7 5 -4 11 -2 13 2 1 5 50 33 108 63 58 30 107 56 110 59 3 3 48 32
100 65 52 32 114 73 137 89 76 55 93 67 95 65 2 -1 19 12 38 29 19 17 38 31
43 32 4 0 15 8 25 18 35 32 82 72 82 68 0 -2 15 10 33 27 51 48 106 97 110 97
2 0 62 60 134 133 190 193 222 227 214 227 -3 0 -1 4 5 8 17 11 145 171 214
268 36 49 68 90 72 92 4 2 8 10 8 18 0 8 3 14 8 14 4 0 18 23 32 51 14 28 31
54 38 56 6 3 12 11 12 18 0 8 6 20 13 27 20 22 236 439 242 468 0 3 20 53 43
112 112 283 201 621 237 897 11 79 13 104 20 176 4 39 10 97 13 130 14 121 5
525 -13 665 -3 19 -7 60 -9 90 -2 30 -12 98 -21 150 -9 52 -19 109 -21 125 -3
17 -18 84 -34 150 -16 66 -31 129 -33 140 -2 11 -7 27 -10 35 -4 8 -8 24 -10
35 -2 11 -6 27 -9 35 -12 33 -70 206 -73 215 -2 11 -19 52 -39 100 -16 36 -40
98 -42 105 0 3 -34 73 -74 155 -41 83 -73 153 -72 158 1 4 -2 7 -6 7 -5 0 -17
19 -28 43 -10 23 -21 44 -25 47 -10 9 -99 159 -99 169 0 5 -4 11 -8 13 -9 3
-72 93 -72 102 0 3 -11 17 -25 32 -14 15 -25 32 -25 38 0 6 -9 17 -20 24 -12
7 -18 17 -15 21 2 5 -2 11 -10 15 -8 3 -15 12 -15 20 0 8 -4 16 -9 18 -5 2
-34 35 -65 73 -31 39 -72 86 -91 106 -19 21 -35 40 -35 43 0 3 -72 78 -160
166 -88 88 -160 158 -160 155 0 -3 -18 12 -40 34 -22 22 -40 36 -40 33 0 -4
-4 -2 -8 3 -8 11 -59 53 -167 135 -38 29 -73 58 -76 63 -3 5 -10 9 -15 9 -5 0
-45 25 -89 55 -164 111 -244 158 -400 237 -156 79 -205 102 -330 154 -33 13
-71 29 -85 35 -14 6 -27 11 -30 12 -9 2 -274 87 -290 93 -8 3 -25 7 -36 9 -12
2 -55 12 -95 24 -83 22 -84 22 -229 49 -120 22 -306 46 -430 55 -100 7 -466
16 -471 11z"/>
</g>
</svg>
